<svg xmlns="http://www.w3.org/2000/svg" xmlns:xlink="http://www.w3.org/1999/xlink" viewBox="0 0 65 61" fill="#fff" fill-rule="evenodd" stroke="#000" stroke-linecap="round" stroke-linejoin="round"><use xlink:href="#A" x=".5" y=".5"/><symbol id="A" overflow="visible"><g stroke="none" fill-rule="nonzero"><path d="M63.597 29.9c.585-.585.487-1.7 0-2.307L60.5 24.496 46.7 11.1c-.585-.585-1.495-.585-2.2 0-.585.585-.812 1.7 0 2.307L59 27.615c.585.585.585 1.7 0 2.307L44.2 44.608c-.585.585-.585 1.7 0 2.307.585.585 1.7.487 2.2 0l13.8-13.68zm-63.194 0c-.585-.585-.487-1.7 0-2.307L3.5 24.496 17.3 11.1c.585-.585 1.495-.585 2.2 0 .585.585.812 1.7 0 2.307l-14.2 14.2c-.585.585-.585 1.7 0 2.307L19.8 44.6c.585.585.585 1.7 0 2.307-.585.585-1.7.487-2.2 0L3.5 33.44z" fill="#3999c6"/><path d="M34.583 19.915L47.58 0H28.085L17.6 29.6l12.8.097-10.007 29.307L48 19.918z" fill="#fcd116"/><path d="M48.002 19.915h-13.42L47.58 0H37.377L26.6 24.594l12.8.097-19.007 34.3z" fill="#ff8c00" opacity=".3"/></g></symbol></svg>